HIERARCHY
ROOT root
{
	OFFSET	0	13.1	24.9
	CHANNELS 6  Xposition Yposition Zposition Xrotation Yrotation Zrotation
	JOINT spine_1
	{
		OFFSET	0	9.99999	0
		CHANNELS 3  Xrotation Yrotation Zrotation
		JOINT spine_2
		{
			OFFSET	0	112	-10
			CHANNELS 3  Xrotation Yrotation Zrotation
			JOINT spine_3
			{
				OFFSET	0	206.5	19.3
				CHANNELS 3  Xrotation Yrotation Zrotation
				JOINT spine_4
				{
					OFFSET	0	110.4	14.6
					CHANNELS 3  Xrotation Yrotation Zrotation
					JOINT neck_1
					{
						OFFSET	0	71.8	-50.3
						CHANNELS 3  Xrotation Yrotation Zrotation
						JOINT neck_2
						{
							OFFSET	0	86.2	-25.8
							CHANNELS 3  Xrotation Yrotation Zrotation
							JOINT head_ee
							{
								OFFSET	0	179.8	-8.7
								CHANNELS 3  Xrotation Yrotation Zrotation
								End Site
								{
									OFFSET	1	0	0
								}
							}
						}
					}
					JOINT left_clavicle
					{
						OFFSET	-43.2	22.4	-70.8
						CHANNELS 3  Xrotation Yrotation Zrotation
						JOINT left_shoulder
						{
							OFFSET	-93.9	-5.79999	48.7
							CHANNELS 3  Xrotation Yrotation Zrotation
							JOINT left_elbow
							{
								OFFSET	-291.4	-30.8	15.2
								CHANNELS 3  Xrotation Yrotation Zrotation
								JOINT left_lowarm_twist
								{
									OFFSET	-110.7	-3.89999	13.6
									CHANNELS 3  Xrotation Yrotation Zrotation
									JOINT left_hand
									{
										OFFSET	-110.7	-3.89999	13.6
										CHANNELS 3  Xrotation Yrotation Zrotation
										JOINT left_ee
										{
											OFFSET	-80.8	-5.10001	12.1
											CHANNELS 3  Xrotation Yrotation Zrotation
											End Site
											{
												OFFSET	1	0	0
											}
										}
									}
								}
							}
						}
					}
					JOINT right_clavicle
					{
						OFFSET	43.2	22.4	-70.8
						CHANNELS 3  Xrotation Yrotation Zrotation
						JOINT right_shoulder
						{
							OFFSET	93.9	-5.79999	48.7
							CHANNELS 3  Xrotation Yrotation Zrotation
							JOINT right_elbow
							{
								OFFSET	291.4	-30.8	15.2
								CHANNELS 3  Xrotation Yrotation Zrotation
								JOINT right_lowarm_twist
								{
									OFFSET	110.7	-3.89999	13.6
									CHANNELS 3  Xrotation Yrotation Zrotation
									JOINT right_hand
									{
										OFFSET	110.7	-3.89999	13.6
										CHANNELS 3  Xrotation Yrotation Zrotation
										JOINT right_ee
										{
											OFFSET	80.8	-5.10001	12.1
											CHANNELS 3  Xrotation Yrotation Zrotation
											End Site
											{
												OFFSET	1	0	0
											}
										}
									}
								}
							}
						}
					}
				}
			}
		}
	}
	JOINT left_hip
	{
		OFFSET	-82.8	-127.5	0.300001
		CHANNELS 3  Xrotation Yrotation Zrotation
		JOINT left_knee
		{
			OFFSET	-28.2	-396.7	2.2
			CHANNELS 3  Xrotation Yrotation Zrotation
			JOINT left_ankle
			{
				OFFSET	-11.7	-411.3	35.4
				CHANNELS 3  Xrotation Yrotation Zrotation
				JOINT left_toes
				{
					OFFSET	0	-60	-88.6
					CHANNELS 3  Xrotation Yrotation Zrotation
					JOINT left_foot_ee
					{
						OFFSET	-22.5	-16.5	-42.2
						CHANNELS 3  Xrotation Yrotation Zrotation
						End Site
						{
							OFFSET	1	0	0
						}
					}
				}
			}
		}
	}
	JOINT right_hip
	{
		OFFSET	82.8	-127.5	0.300001
		CHANNELS 3  Xrotation Yrotation Zrotation
		JOINT right_knee
		{
			OFFSET	28.2	-396.7	2.2
			CHANNELS 3  Xrotation Yrotation Zrotation
			JOINT right_ankle
			{
				OFFSET	11.7	-411.3	35.4
				CHANNELS 3  Xrotation Yrotation Zrotation
				JOINT right_toes
				{
					OFFSET	0	-60	-88.6
					CHANNELS 3  Xrotation Yrotation Zrotation
					JOINT right_foot_ee
					{
						OFFSET	22.5	-16.5	-42.2
						CHANNELS 3  Xrotation Yrotation Zrotation
						End Site
						{
							OFFSET	1	0	0
						}
					}
				}
			}
		}
	}
}
MOTION
Frames: 10
Frame Time: 0.02
1372.05 701.618 -1475.22 -13.1309624287 21.7395113633 0.15523596149 5.56417 0.0930885 0.681136 5.56443 0.0495584 0.685678 5.56476 -0.0291956 0.686847 5.56411 0.0796428 0.682838 -16.7316 2.33909 -1.10346 -16.756 5.11274 -0.191088 -0.0 0.0 -0.0 4.31592 11.1946 8.66643 -63.2724 -79.1097 -3.88145 0.431277 -12.0597 0.0455565 25.8254 0.176405 -3.26646 -6.39387 -24.7406 -62.1712 -0.0 0.0 -0.0 11.7345 20.5259 -23.2875 -36.4729 13.9876 -69.5058 0.367741 10.3245 -0.0332229 14.3562 -0.280665 1.80761 3.20611 -17.035 -27.7124 0.0 0.0 0.0 6.59483 15.7533 7.45173 -23.2847 0.242193 3.54048 -1.97448 -6.72121 0.300789 -8.10426 0.0 0.0 -0.0 0.0 -0.0 52.2875 -11.7768 4.78276 -21.7675 -0.270451 -3.30938 -4.29404 20.3983 -0.724932 -7.52826 0.0 0.0 0.0 0.0 0.0 
1364.85537364 713.036 -1516.48521964 -12.7838028827 23.2947746845 0.890167458376 5.49391 0.116734 0.99885 5.49446 0.0529409 1.00425 5.49484 -0.0635026 1.00364 5.49345 0.0957926 1.00108 -19.235 1.50744 -1.33238 -19.2478 3.59885 -0.631566 -0.0 0.0 -0.0 4.50048 9.75934 8.96457 -62.7228 -75.7613 0.631836 0.394219 -11.0501 0.0381331 47.4321 -0.79117 -5.83673 -4.28067 -27.4067 -42.113 -0.0 0.0 -0.0 12.3389 21.7035 -24.5818 -32.679 11.4343 -71.9143 0.203442 5.75493 -0.0102257 17.3735 -0.281596 2.19296 3.63525 0.753215 -24.8029 0.0 0.0 0.0 11.0676 12.9319 4.35994 -32.9437 -0.079894 4.98611 0.669122 1.96773 -0.0983796 -1.43472 0.0 0.0 -0.0 0.0 -0.0 48.3673 -9.47019 3.10565 -20.3648 -0.291124 -3.09515 1.06063 20.2155 0.176304 -5.84893 0.0 0.0 0.0 0.0 0.0 
1355.00953155 710.552 -1546.26702454 -12.5335991342 23.5646593376 0.45711444825 5.66932 0.0962023 1.04148 5.66992 0.0297388 1.04549 5.66984 -0.0881377 1.0422 5.66834 0.0775547 1.04304 -20.4672 3.62873 -2.15282 -20.553 8.07359 -0.449746 -0.0 0.0 -0.0 4.18561 10.8609 8.43647 -54.0323 -73.471 12.2781 0.494967 -13.7769 0.0597967 54.9627 -1.34655 -6.62432 -3.5063 -27.4955 -35.9906 -0.0 0.0 -0.0 11.7801 22.344 -23.2446 -29.1934 10.6047 -72.1542 0.197363 5.58409 -0.00962522 18.4627 -0.276947 2.332 4.0446 5.7554 -25.6867 0.0 0.0 0.0 10.9519 9.16139 4.64006 -35.2003 -0.189977 5.31477 2.2176 5.89124 -0.323027 1.63013 -0.0 -0.0 -0.0 0.0 -0.0 46.9587 -8.94633 2.57239 -23.0416 -0.247131 -3.50351 9.00288 15.0602 1.39487 -9.01274 0.0 0.0 0.0 0.0 0.0 
1355.81034635 710.552 -1546.454338 -12.4736073735 22.9349968079 0.305139329849 5.66932 0.0962023 1.04148 5.66992 0.0297388 1.04549 5.66984 -0.0881377 1.0422 5.66834 0.0775547 1.04304 -20.4672 3.62873 -2.15282 -20.553 8.07359 -0.449746 -0.0 0.0 -0.0 4.18561 10.8609 8.43647 -54.0323 -73.471 12.2781 0.494967 -13.7769 0.0597967 54.9627 -1.34655 -6.62432 -3.5063 -27.4955 -35.9906 -0.0 0.0 -0.0 11.7801 22.344 -23.2446 -29.1934 10.6047 -72.1542 0.197363 5.58409 -0.00962522 18.4627 -0.276947 2.332 4.0446 5.7554 -25.6867 0.0 0.0 0.0 10.9519 9.16139 4.64006 -35.2003 -0.189977 5.31477 2.2176 5.89124 -0.323027 1.63013 -0.0 -0.0 -0.0 0.0 -0.0 46.9587 -8.94633 2.57239 -23.0416 -0.247131 -3.50351 9.00288 15.0602 1.39487 -9.01274 0.0 0.0 0.0 0.0 0.0 
1353.73978156 712.694 -1572.39644211 -11.7582689958 22.9510002209 -0.0411719279395 5.74208 0.115073 1.30964 5.74303 0.0315117 1.3143 5.74275 -0.114976 1.30965 5.74037 0.0932827 1.31137 -21.4169 4.34063 -2.45153 -21.5492 9.55851 -0.343694 -0.0 0.0 -0.0 3.3029 9.48802 6.86296 -52.8406 -73.3474 17.2489 0.356366 -10.0117 0.0312146 61.3584 -1.89635 -7.23181 -2.47224 -18.1041 -24.8637 -0.0 0.0 -0.0 12.3819 21.956 -24.6597 -27.6462 10.3615 -71.6824 0.194668 5.50831 -0.00936478 19.5808 -0.269426 2.47461 3.62829 7.55239 -21.8011 0.0 0.0 0.0 15.7863 8.35399 2.0098 -45.0495 -0.818854 6.69021 8.05046 10.6605 -1.15303 5.88754 -0.0 -0.0 -0.0 0.0 -0.0 43.5372 -10.1179 1.39974 -20.3782 -0.290951 -3.0972 12.5018 14.8863 1.90732 -11.6476 0.0 0.0 0.0 0.0 0.0 
1328.81192182 718.773 -1617.7332115 -10.6135981308 21.8539719312 -1.18853993308 6.31786 0.102574 1.28894 6.31878 0.0203546 1.29285 6.31813 -0.110745 1.28826 6.31582 0.0940847 1.28958 -21.8696 6.6897 -1.76278 -22.1812 13.7422 1.42224 -0.0 0.0 -0.0 3.18454 14.0909 6.84338 -59.9929 -71.1403 17.0945 0.311879 -8.78271 0.0239505 70.1305 -2.75392 -7.9586 -2.56832 0.876042 -16.9972 -0.0 0.0 -0.0 12.6315 20.8678 -25.3252 -29.3622 14.3883 -70.156 0.205566 5.81459 -0.0104397 22.833 -0.231754 2.88826 4.38577 13.3453 -24.5187 0.0 0.0 0.0 19.4372 5.09354 2.80224 -56.2981 -1.81379 8.10513 15.5297 16.7539 -2.19038 8.69057 -0.0 -0.0 -0.0 0.0 -0.0 38.2714 -8.94673 0.79292 -19.2493 -0.303816 -2.92446 19.0257 16.574 2.85036 -8.04192 0.0 0.0 0.0 0.0 0.0 
1332.64227337 718.773 -1618.83955973 -10.5051264615 20.3460416113 -1.48982601271 6.31786 0.102574 1.28894 6.31878 0.0203546 1.29285 6.31813 -0.110745 1.28826 6.31582 0.0940847 1.28958 -21.8696 6.6897 -1.76278 -22.1812 13.7422 1.42224 -0.0 0.0 -0.0 3.18454 14.0909 6.84338 -59.9929 -71.1403 17.0945 0.311879 -8.78271 0.0239505 70.1305 -2.75392 -7.9586 -2.56832 0.876042 -16.9972 -0.0 0.0 -0.0 12.6315 20.8678 -25.3252 -29.3622 14.3883 -70.156 0.205566 5.81459 -0.0104397 22.833 -0.231754 2.88826 4.38577 13.3453 -24.5187 0.0 0.0 0.0 19.4372 5.09354 2.80224 -56.2981 -1.81379 8.10513 15.5297 16.7539 -2.19038 8.69057 -0.0 -0.0 -0.0 0.0 -0.0 38.2714 -8.94673 0.79292 -19.2493 -0.303816 -2.92446 19.0257 16.574 2.85036 -8.04192 0.0 0.0 0.0 0.0 0.0 
1337.29856731 718.773 -1620.03672825 -10.3867740646 18.5269744954 -1.84544691146 6.31786 0.102574 1.28894 6.31878 0.0203546 1.29285 6.31813 -0.110745 1.28826 6.31582 0.0940847 1.28958 -21.8696 6.6897 -1.76278 -22.1812 13.7422 1.42224 -0.0 0.0 -0.0 3.18454 14.0909 6.84338 -59.9929 -71.1403 17.0945 0.311879 -8.78271 0.0239505 70.1305 -2.75392 -7.9586 -2.56832 0.876042 -16.9972 -0.0 0.0 -0.0 12.6315 20.8678 -25.3252 -29.3622 14.3883 -70.156 0.205566 5.81459 -0.0104397 22.833 -0.231754 2.88826 4.38577 13.3453 -24.5187 0.0 0.0 0.0 19.4372 5.09354 2.80224 -56.2981 -1.81379 8.10513 15.5297 16.7539 -2.19038 8.69057 -0.0 -0.0 -0.0 0.0 -0.0 38.2714 -8.94673 0.79292 -19.2493 -0.303816 -2.92446 19.0257 16.574 2.85036 -8.04192 0.0 0.0 0.0 0.0 0.0 
1312.31559893 719.945 -1658.58077806 -9.50715806969 17.7007904776 -2.42634742721 6.64067 0.130351 1.03291 6.64126 0.0643637 1.03911 6.64165 -0.0353648 1.0405 6.64016 0.129398 1.03303 -21.9818 6.25621 -1.37432 -22.2518 12.7199 1.58993 -0.0 0.0 -0.0 2.70551 18.1856 6.24069 -69.6167 -68.646 15.2142 0.464775 -12.9658 0.0528143 74.9825 -3.27311 -8.30202 -2.10046 7.1972 -10.722 -0.0 0.0 -0.0 12.7956 22.0081 -25.6115 -34.1337 15.0502 -68.8242 0.394158 11.0485 -0.0381214 23.8455 -0.215239 3.01654 4.08277 14.6075 -21.6673 0.0 0.0 0.0 23.6427 6.8664 1.67773 -68.5721 -3.19314 9.39792 25.8404 17.6284 -3.492 12.6335 -0.0 -0.0 -0.0 0.0 -0.0 33.6216 -7.51635 0.993577 -19.5493 -0.300729 -2.97039 24.9488 16.4335 3.61289 -5.85551 0.0 0.0 0.0 0.0 0.0 
1301.58958716 719.033 -1691.50712211 -9.79853705704 18.4229841629 -2.02603506078 6.89896 0.329304 0.931914 6.8994 0.26934 0.950978 6.90321 0.181572 0.971561 6.90205 0.332727 0.930698 -20.2362 5.93568 -0.0217557 -20.4299 11.455 2.50433 -0.0 0.0 -0.0 1.92714 20.1209 5.16968 -71.109 -69.8835 15.3644 0.432167 -12.0839 0.0457426 75.7786 -3.36099 -8.35413 -2.53315 11.505 -11.409 -0.0 0.0 -0.0 12.4968 21.0209 -25.0018 -32.8031 13.2134 -69.222 0.430919 12.05 -0.0454816 25.476 -0.183887 3.22245 3.83014 19.657 -17.2539 0.0 0.0 0.0 22.9556 7.45535 0.515881 -69.9867 -3.36918 9.52733 27.0534 16.9929 -3.62593 14.7715 -0.0 -0.0 -0.0 0.0 -0.0 31.8132 -5.51484 0.609532 -21.8608 -0.26889 -3.32362 32.1935 12.6349 4.34159 -3.18355 0.0 0.0 0.0 0.0 0.0 
